<?xml version="1.0" encoding="UTF-8" standalone="no"?>
<!DOCTYPE svg PUBLIC "-//W3C//DTD SVG 1.1//EN" "http://www.w3.org/Graphics/SVG/1.1/DTD/svg11.dtd">
<svg version="1.1" xmlns="http://www.w3.org/2000/svg" xmlns:xlink="http://www.w3.org/1999/xlink" preserveAspectRatio="xMidYMid meet" viewBox="0 0 634 420" width="634" height="420"><defs><path d="M0 0L0 420L695 436.5C652.51 422.13 625.95 413.16 615.33 409.56C597.12 403.41 580.32 393.71 565.88 381.03C554.9 371.38 569.69 384.37 565.17 380.4C529.94 349.45 485.83 330.42 439.14 326.02C428.65 325.03 440.05 326.11 422.32 324.44C399.46 322.28 378.33 311.37 363.33 293.98C354.68 283.95 354.53 283.77 346.48 274.45C329.12 254.31 307.2 238.62 282.55 228.67C266.78 222.31 258.89 219.13 243.6 212.96C218.74 202.93 200.71 180.93 195.75 154.59C192.37 136.63 192 134.69 189.07 119.15C182.67 85.15 159.89 56.51 128.2 42.64C112.87 35.92 98.44 29.6 78.34 20.8C60.54 13 41.87 7.36 22.73 4C19.7 3.46 12.12 2.13 0 0Z" id="bfv6AD1oW"/><path d="M0 0.12L0 420.12L687 420.12C649.36 403.65 625.83 393.35 616.42 389.23C599.67 381.9 583.89 372.51 569.45 361.27C558.13 352.46 572.34 363.52 567.63 359.85C531.73 331.91 489.19 313.74 444.18 307.13C435.34 305.83 449.37 307.89 433.49 305.56C411.79 302.38 391.8 291.98 376.73 276.04C367.83 266.62 367.16 265.91 358.95 257.22C341.31 238.57 320 223.77 296.36 213.77C281.51 207.49 274.61 204.57 260.22 198.48C236.08 188.27 217.79 167.79 210.36 142.67C204.79 123.81 202.27 115.3 197.32 98.54C187.96 66.88 164.52 41.31 133.79 29.24C118.87 23.38 99.8 15.89 79.13 7.77C65.95 2.59 51.92 -0.04 37.76 0C32.73 0.02 20.14 0.06 0 0.12Z" id="ayb4q0TSF"/></defs><g><g><g><use xlink:href="#ayb4q0TSF" opacity="1" fill="#EFF8FF" fill-opacity="1"/></g><g><use xlink:href="#bfv6AD1oW" opacity="1" fill="#E5F3FF" fill-opacity="1"/></g></g></g></svg>